<svg width="193" height="53" viewBox="0 0 193 53" fill="none" xmlns="http://www.w3.org/2000/svg">
<rect width="193" height="53" fill="#C4C4C4"/>
<path d="M100.19 16H91.81C88.17 16 86 18.17 86 21.81V30.19C86 31.28 86.19 32.23 86.56 33.03C87.42 34.93 89.26 36 91.81 36H100.19C103.83 36 106 33.83 106 30.19V27.9V21.81C106 18.17 103.83 16 100.19 16ZM104.37 26.5C103.59 25.83 102.33 25.83 101.55 26.5L97.39 30.07C96.61 30.74 95.35 30.74 94.57 30.07L94.23 29.79C93.52 29.17 92.39 29.11 91.59 29.65L87.85 32.16C87.63 31.6 87.5 30.95 87.5 30.19V21.81C87.5 18.99 88.99 17.5 91.81 17.5H100.19C103.01 17.5 104.5 18.99 104.5 21.81V26.61L104.37 26.5Z" fill="#292D32"/>
</svg>
